<svg width="964" height="224" viewBox="0 0 964 224" fill="none" xmlns="http://www.w3.org/2000/svg">
<path fill-rule="evenodd" clip-rule="evenodd" d="M109.816 26.1026C96.952 14.7746 79.288 9.11057 56.824 9.11057H0.952026V217.335H28.888V141.015H59.704C72.376 141.015 83.128 139.095 91.96 135.255C100.792 131.223 107.896 126.039 113.272 119.703C118.84 113.175 122.872 105.975 125.368 98.1026C127.864 90.0386 129.112 81.8786 129.112 73.6226C129.112 53.2706 122.68 37.4306 109.816 26.1026ZM79.864 109.911C74.488 112.407 67.768 113.655 59.704 113.655H28.888V35.8946H61.144C71.128 35.8946 79 37.9106 84.76 41.9426C90.712 45.9746 94.936 50.9666 97.432 56.9186C100.12 62.8706 101.464 68.6306 101.464 74.1986C101.464 77.8466 100.792 81.9746 99.448 86.5826C98.104 90.9986 95.8 95.3186 92.536 99.5426C89.464 103.767 85.24 107.223 79.864 109.911ZM222.537 0.470581L131.529 217.335H159.177L181.237 162.9L181.224 162.9L191.137 138.434L208.335 138.423H191.145L222.249 62.6786L251.913 138.423H251.91L261.387 162.608L259.583 162.615H261.417L283.017 217.335H315.273L224.265 0.470581H222.537ZM381.85 69.0146L534.778 223.959H535.642V9.11057H507.706L508.282 160.023L355.642 2.77457H354.202V217.335H382.426L381.85 69.0146ZM590.619 72.4706C585.243 85.3346 582.555 98.9666 582.555 113.367C582.555 128.343 585.243 142.359 590.619 155.415C596.187 168.279 603.867 179.511 613.659 189.111C623.451 198.711 634.683 206.199 647.355 211.575C660.219 216.951 673.947 219.639 688.539 219.639C703.131 219.639 716.859 216.951 729.723 211.575C742.779 206.007 754.203 198.327 763.995 188.535C773.786 178.743 781.467 167.511 787.035 154.839C792.603 141.975 795.387 128.151 795.387 113.367C795.387 98.9666 792.603 85.3346 787.035 72.4706C781.467 59.6066 773.786 48.2786 763.995 38.4866C754.203 28.6946 742.779 21.0146 729.723 15.4466C716.859 9.68658 703.131 6.80659 688.539 6.80659C673.947 6.80659 660.219 9.68658 647.355 15.4466C634.683 21.0146 623.451 28.6946 613.659 38.4866C603.867 48.2786 596.187 59.6066 590.619 72.4706ZM617.403 144.471C613.371 134.871 611.355 124.599 611.355 113.655C611.355 99.0626 614.715 85.7186 621.435 73.6226C628.347 61.5266 637.659 51.8306 649.371 44.5346C661.083 37.2386 674.235 33.5906 688.827 33.5906C699.579 33.5906 709.659 35.7026 719.067 39.9266C728.475 43.9586 736.731 49.6226 743.835 56.9186C750.939 64.2146 756.507 72.7586 760.539 82.5506C764.571 92.1506 766.587 102.423 766.587 113.367C766.587 128.151 763.131 141.591 756.219 153.687C749.307 165.591 739.995 175.095 728.283 182.199C716.763 189.111 703.803 192.567 689.403 192.567C678.459 192.567 668.283 190.551 658.875 186.519C649.467 182.487 641.211 176.823 634.107 169.527C627.003 162.231 621.435 153.879 617.403 144.471ZM926.836 36.7586C935.284 39.4466 943.06 42.6146 950.164 46.2626L960.82 24.6626C952.948 20.0546 943.828 16.1186 933.46 12.8546C923.284 9.59057 911.572 7.95857 898.324 7.95857C886.228 8.34258 875.572 10.9346 866.356 15.7346C857.14 20.3426 849.844 26.7746 844.468 35.0306C839.284 43.0946 836.692 52.5986 836.692 63.5426C836.692 72.5666 838.42 80.2466 841.876 86.5826C845.332 92.9186 849.844 98.2946 855.412 102.711C861.172 106.935 867.412 110.583 874.132 113.655C880.852 116.727 887.476 119.415 894.004 121.719C901.108 124.407 907.636 127.479 913.588 130.935C919.732 134.199 924.724 138.231 928.564 143.031C932.404 147.831 934.324 153.687 934.324 160.599C934.324 168.663 932.212 175.287 927.988 180.471C923.764 185.463 918.388 189.111 911.86 191.415C905.524 193.719 898.996 194.871 892.276 194.871C883.252 194.871 873.748 192.951 863.764 189.111C853.972 185.271 845.716 180.759 838.996 175.575L826.612 197.751C834.868 203.511 844.852 208.599 856.564 213.015C868.468 217.431 881.332 219.639 895.156 219.639C909.172 219.639 921.268 217.047 931.444 211.863C941.62 206.487 949.492 199.383 955.06 190.551C960.628 181.527 963.412 171.447 963.412 160.311C963.412 147.255 960.724 136.887 955.348 129.207C950.164 121.335 943.54 115.095 935.476 110.487C927.412 105.879 919.06 101.943 910.42 98.6786C902.74 95.7986 895.444 92.7266 888.532 89.4626C881.812 86.0066 876.244 82.0706 871.828 77.6546C867.604 73.2386 865.492 67.8626 865.492 61.5266C865.492 52.6946 868.756 45.6866 875.284 40.5026C882.004 35.3186 891.028 32.7266 902.356 32.7266C910.228 32.7266 918.388 34.0706 926.836 36.7586Z" fill="black"/>
</svg>
